<svg width="91" height="10" viewBox="0 0 91 10" fill="none" xmlns="http://www.w3.org/2000/svg">
<path d="M2.03993 0.695758L4.30793 6.82776L6.56393 0.695758H8.42393L5.25593 8.99976H3.34793L0.179932 0.695758H2.03993Z" fill="white"/>
<path d="M11.8655 0.695758H17.5295V2.35176H13.6415V4.03176H17.0735V5.68776H13.6415V7.34376H17.5295V8.99976H11.8655V0.695758Z" fill="white"/>
<path d="M26.9473 5.97576V0.695758H28.6753V8.99976H27.1033L23.0833 3.73176V8.99976H21.3553V0.695758H22.9273L26.9473 5.97576Z" fill="white"/>
<path d="M36.0542 4.07976L38.0822 0.695758H40.0262L37.3862 4.99176L40.0262 8.99976H38.0702L35.9342 5.74776H34.5782V8.99976H32.8022V0.695758H34.5782V4.07976H36.0542Z" fill="white"/>
<path d="M48.1185 0.695758L51.5145 8.99976H49.6425L48.9705 7.25976H45.3585L44.6985 8.99976H42.8265L46.2105 0.695758H48.1185ZM48.4065 5.69976L47.1705 2.51976L45.9225 5.69976H48.4065Z" fill="white"/>
<path d="M53.4902 0.695758H60.2462V2.39976H57.7502V8.99976H55.9862V2.39976H53.4902V0.695758Z" fill="white"/>
<path d="M63.7678 0.695758H69.4318V2.35176H65.5438V4.03176H68.9758V5.68776H65.5438V7.34376H69.4318V8.99976H63.7678V0.695758Z" fill="white"/>
<path d="M79.4617 1.69176L78.4297 2.99976C77.8777 2.39976 77.2537 2.12376 76.3417 2.12376H76.3297C75.3697 2.12376 74.7817 2.42376 74.7817 2.93976C74.7817 3.29976 74.9977 3.57576 75.9097 3.76776L77.5177 4.12776C79.1497 4.47576 79.5817 5.59176 79.5817 6.69576C79.5817 8.24376 78.2137 9.14376 76.3057 9.14376H76.2937C74.5297 9.14376 73.2817 8.53176 72.6457 7.34376L74.0977 6.28776C74.6377 7.25976 75.3817 7.57176 76.3297 7.57176H76.3417C77.2777 7.57176 77.7817 7.22376 77.7817 6.64776C77.7817 6.15576 77.4577 5.85576 76.7617 5.68776L74.9137 5.23176C73.5337 4.89576 72.9937 4.03176 72.9937 3.01176C72.9937 1.39176 74.3737 0.551758 76.4017 0.551758H76.4137C77.7217 0.551758 78.7777 0.947758 79.4617 1.69176Z" fill="white"/>
<path d="M84.9688 3.99576H88.7368V0.695758H90.5128V8.99976H88.7368V5.67576H84.9688V8.99976H83.1928V0.695758H84.9688V3.99576Z" fill="white"/>
</svg>
